<svg width="100" height="55" viewBox="0 0 100 55" fill="none" xmlns="http://www.w3.org/2000/svg">
<rect width="100" height="55" rx="5" fill="url(#paint0_linear_63_151)"/>
<g clip-path="url(#clip0_63_151)">
<path d="M94 18.536V36.464C94 40.7398 92.7134 42 88.3997 42H70.2669C65.9532 42 64.6666 40.7398 64.6666 36.464V18.536C64.6666 14.2602 65.9532 13 70.2669 13H88.3997C92.7134 13 94 14.2602 94 18.536Z" fill="url(#paint1_linear_63_151)"/>
<path d="M74.4444 22.6617H65.0753V36.464C65.0753 38.5944 65.3932 39.8096 66.1348 40.5448C66.8765 41.2799 68.1176 41.5949 70.2669 41.5949H74.4444V22.6617Z" fill="url(#paint2_linear_63_151)"/>
<path d="M92.5318 40.5448C93.2734 39.8096 93.5913 38.5944 93.5913 36.464V22.6617H84.2222V41.5949H88.3997C90.549 41.5949 91.775 41.2799 92.5318 40.5448Z" fill="url(#paint3_linear_63_151)"/>
<path d="M88.3997 13.4051C90.549 13.4051 91.7901 13.7201 92.5318 14.4553C93.2734 15.1904 93.5913 16.4056 93.5913 18.536V36.464C93.5913 38.5944 93.2734 39.8096 92.5318 40.5447C91.7901 41.2799 90.549 41.5949 88.3997 41.5949H70.2669C68.1176 41.5949 66.8765 41.2799 66.1348 40.5447C65.3931 39.8096 65.0753 38.5944 65.0753 36.464V18.536C65.0753 16.4056 65.3931 15.1904 66.1348 14.4553C66.8765 13.7201 68.1176 13.4051 70.2669 13.4051H88.3997ZM88.3997 13H70.2669C65.9532 13 64.6666 14.2602 64.6666 18.536V36.464C64.6666 40.7398 65.9532 42 70.2669 42H88.3997C92.7134 42 94 40.7398 94 36.464V18.536C94 14.2602 92.7134 13 88.3997 13Z" fill="url(#paint4_linear_63_151)"/>
<path d="M64.6667 18.536V36.464C64.6667 40.7398 63.3802 42 59.0664 42H40.9336C36.6199 42 35.3334 40.7398 35.3334 36.464V18.536C35.3334 14.2602 36.6199 13 40.9336 13H59.0664C63.3802 13 64.6667 14.2602 64.6667 18.536Z" fill="url(#paint5_linear_63_151)"/>
<path d="M54.889 13.4051H45.1112V22.6617H54.889V13.4051Z" fill="url(#paint6_linear_63_151)"/>
<path d="M54.889 41.5949V32.3383H45.1112V41.5949H54.889Z" fill="url(#paint7_linear_63_151)"/>
<path d="M59.0664 13.4051C61.2157 13.4051 62.4569 13.7201 63.1985 14.4553C63.9402 15.1904 64.258 16.4056 64.258 18.536V36.464C64.258 38.5944 63.9402 39.8096 63.1985 40.5447C62.4569 41.2799 61.2157 41.5949 59.0664 41.5949H40.9336C38.7844 41.5949 37.5432 41.2799 36.8016 40.5447C36.0599 39.8096 35.742 38.5944 35.742 36.464V18.536C35.742 16.4056 36.0599 15.1904 36.8016 14.4553C37.5432 13.7201 38.7844 13.4051 40.9336 13.4051H59.0664ZM59.0664 13H40.9336C36.6199 13 35.3334 14.2602 35.3334 18.536V36.464C35.3334 40.7398 36.6199 42 40.9336 42H59.0664C63.3802 42 64.6667 40.7398 64.6667 36.464V18.536C64.6667 14.2602 63.3802 13 59.0664 13Z" fill="url(#paint8_linear_63_151)"/>
<path d="M35.3333 18.536V36.464C35.3333 40.7398 34.0468 42 29.7331 42H11.6003C7.28655 42 6 40.7398 6 36.464V18.536C6 14.2602 7.28655 13 11.6003 13H29.7331C34.0619 13 35.3333 14.2602 35.3333 18.536Z" fill="url(#paint9_linear_63_151)"/>
<path d="M15.7778 22.6617H6.40869V36.464C6.40869 38.5944 6.72654 39.8096 7.4682 40.5448C8.20986 41.2799 9.451 41.5949 11.6003 41.5949H15.7778V22.6617Z" fill="url(#paint10_linear_63_151)"/>
<path d="M33.8651 40.5448C34.6068 39.8096 34.9247 38.5944 34.9247 36.464V22.6617H25.5555V41.5949H29.733C31.8823 41.5949 33.1235 41.2799 33.8651 40.5448Z" fill="url(#paint11_linear_63_151)"/>
<path d="M29.7331 13.4051C31.8824 13.4051 33.1235 13.7201 33.8652 14.4553C34.6068 15.1904 34.9247 16.4056 34.9247 18.536V36.464C34.9247 38.5944 34.6068 39.8096 33.8652 40.5447C33.1235 41.2799 31.8824 41.5949 29.7331 41.5949H11.6003C9.45098 41.5949 8.20984 41.2799 7.46818 40.5447C6.72652 39.8096 6.40867 38.5944 6.40867 36.464V18.536C6.40867 16.4056 6.72652 15.1904 7.46818 14.4553C8.20984 13.7201 9.45098 13.4051 11.6003 13.4051H29.7331ZM29.7331 13H11.6003C7.28655 13 6 14.2602 6 18.536V36.464C6 40.7398 7.28655 42 11.6003 42H29.7331C34.0468 42 35.3333 40.7398 35.3333 36.464V18.536C35.3333 14.2602 34.0468 13 29.7331 13Z" fill="url(#paint12_linear_63_151)"/>
</g>
<defs>
<linearGradient id="paint0_linear_63_151" x1="50" y1="0" x2="50" y2="55" gradientUnits="userSpaceOnUse">
<stop stop-color="#00FAFF"/>
<stop offset="1" stop-color="#008AFF"/>
</linearGradient>
<linearGradient id="paint1_linear_63_151" x1="79.3308" y1="13" x2="79.3308" y2="42.0024" gradientUnits="userSpaceOnUse">
<stop stop-color="#FFE2AA"/>
<stop offset="1" stop-color="#D9A95D"/>
</linearGradient>
<linearGradient id="paint2_linear_63_151" x1="69.7572" y1="41.5955" x2="69.7572" y2="22.6673" gradientUnits="userSpaceOnUse">
<stop stop-color="#00FFFF"/>
<stop offset="1" stop-color="#0086FF"/>
</linearGradient>
<linearGradient id="paint3_linear_63_151" x1="88.9032" y1="41.5973" x2="88.9032" y2="22.6673" gradientUnits="userSpaceOnUse">
<stop stop-color="#00FFFF"/>
<stop offset="1" stop-color="#0086FF"/>
</linearGradient>
<linearGradient id="paint4_linear_63_151" x1="79.3277" y1="13" x2="79.3277" y2="42.0024" gradientUnits="userSpaceOnUse">
<stop stop-color="#EDC785"/>
<stop offset="1" stop-color="#D9A95D"/>
</linearGradient>
<linearGradient id="paint5_linear_63_151" x1="49.9971" y1="13" x2="49.9971" y2="42.0024" gradientUnits="userSpaceOnUse">
<stop stop-color="#FFE2AA"/>
<stop offset="1" stop-color="#D9A95D"/>
</linearGradient>
<linearGradient id="paint6_linear_63_151" x1="49.9991" y1="13.4051" x2="49.9991" y2="22.6675" gradientUnits="userSpaceOnUse">
<stop stop-color="#FF2828"/>
<stop offset="1" stop-color="#B30024"/>
</linearGradient>
<linearGradient id="paint7_linear_63_151" x1="49.9991" y1="41.5968" x2="49.9991" y2="32.3349" gradientUnits="userSpaceOnUse">
<stop stop-color="#FF2828"/>
<stop offset="1" stop-color="#B30024"/>
</linearGradient>
<linearGradient id="paint8_linear_63_151" x1="49.9975" y1="13" x2="49.9975" y2="42.0024" gradientUnits="userSpaceOnUse">
<stop stop-color="#EDC785"/>
<stop offset="1" stop-color="#D9A95D"/>
</linearGradient>
<linearGradient id="paint9_linear_63_151" x1="20.6681" y1="13" x2="20.6681" y2="42.0024" gradientUnits="userSpaceOnUse">
<stop stop-color="#FFE2AA"/>
<stop offset="1" stop-color="#D9A95D"/>
</linearGradient>
<linearGradient id="paint10_linear_63_151" x1="11.0945" y1="41.5955" x2="11.0945" y2="22.6673" gradientUnits="userSpaceOnUse">
<stop stop-color="#00FFFF"/>
<stop offset="1" stop-color="#0086FF"/>
</linearGradient>
<linearGradient id="paint11_linear_63_151" x1="30.2405" y1="41.5973" x2="30.2405" y2="22.6673" gradientUnits="userSpaceOnUse">
<stop stop-color="#00FFFF"/>
<stop offset="1" stop-color="#0086FF"/>
</linearGradient>
<linearGradient id="paint12_linear_63_151" x1="20.6671" y1="13" x2="20.6671" y2="42.0024" gradientUnits="userSpaceOnUse">
<stop stop-color="#EDC785"/>
<stop offset="1" stop-color="#D9A95D"/>
</linearGradient>
<clipPath id="clip0_63_151">
<rect width="88" height="29" fill="white" transform="translate(6 13)"/>
</clipPath>
</defs>
</svg>
